<svg data-v-29081953="" xmlns="http://www.w3.org/2000/svg" viewBox="0 0 300 300"><!----><defs data-v-29081953=""><!----></defs><rect data-v-29081953="" fill="transparent" x="0" y="0" width="300px" height="300px" class="logo-background-square"></rect><!----><defs data-v-29081953=""><linearGradient data-v-29081953="" gradientTransform="rotate(25)" id="062d0dd3-cb69-4614-bb46-78dec27991ce" x1="0%" y1="0%" x2="100%" y2="0%"><stop data-v-29081953="" offset="0%" stop-color="#0076DD" stop-opacity="1"></stop><stop data-v-29081953="" offset="100%" stop-color="#00CDE9" stop-opacity="1"></stop></linearGradient></defs><g data-v-29081953="" id="ae24235c-f63d-4cd3-8648-7002de640785" fill="url(#062d0dd3-cb69-4614-bb46-78dec27991ce)" stroke="none" transform="matrix(2.2741602276065622,0,0,2.2741602276065622,36.293118839845356,29.46951661208501)"><path d="M42.021 89.823l56.348-36.234-15.803 7.63.008.073-.047-.054-.263.127.017.024zM79.395 61.174l-40.5-3.783-2.084 33.859zM3.71 38.712l31.208 53.35 2.148-34.916zM95.209 45.172L80.775 27.29l-1.543 5.226 16.696 13.659zM98.135 50.979L79.758 35.645l2.523 22.987zM61.512 33.498l18.246 21.006-2.334-21.148zM59.756 34.836L39.467 54.979l40.965 3.829zM58.445 33.191l-21.771-5.826 2.3 25.606zM37.133 54.393l-2.311-25.856-28.046 9.102zM8.923 35.031l25.604-8.739-8.868-6.425zM1.63 26.184l1.62 11.301 17.707-16.463zM28.355 14.604L7.837 21.987l18.264-4.878zM36.751 24.86l23.38 6.336 17.017-.289 1.524-5.158-10.721-5.896-19.778-5.367-15.917-.548-4.183 4.648z"></path></g><!----></svg>