<svg data-v-d3f97b9e="" xmlns="http://www.w3.org/2000/svg" viewBox="0 0 744 90"><!----><!----><!----><g data-v-d3f97b9e="" id="f667b53c-ca17-4283-9895-821375103f1d" fill="#000000" transform="matrix(5.830903811703725,0,0,5.830903811703725,125.67218317797392,-12.6530621930969)"><path d="M0.99 12.29L0.99 2.69L6.06 2.69L6.06 2.69Q7.62 2.69 8.41 3.46L8.41 3.46L8.41 3.46Q9.20 4.23 9.20 5.60L9.20 5.60L9.20 5.60Q9.20 6.58 8.76 7.27L8.76 7.27L8.76 7.27Q8.33 7.97 7.49 8.30L7.49 8.30L9.55 12.29L7.59 12.29L5.77 8.58L2.79 8.58L2.79 12.29L0.99 12.29ZM2.79 7.07L5.92 7.07L5.92 7.07Q6.61 7.07 7 6.68L7 6.68L7 6.68Q7.39 6.29 7.39 5.60L7.39 5.60L7.39 5.60Q7.39 4.94 7.01 4.58L7.01 4.58L7.01 4.58Q6.64 4.21 5.92 4.21L5.92 4.21L2.79 4.21L2.79 7.07ZM11.10 12.29L11.10 2.69L18.59 2.69L18.59 4.21L12.89 4.21L12.89 6.62L17.98 6.62L17.98 8.15L12.89 8.15L12.89 10.77L18.68 10.77L18.68 12.29L11.10 12.29ZM27.97 12.46L27.97 12.46Q26.87 12.46 25.96 12.14L25.96 12.14L25.96 12.14Q25.05 11.82 24.50 11.15L24.50 11.15L24.50 11.15Q23.95 10.49 23.95 9.51L23.95 9.51L23.97 9.21L25.77 9.21L25.76 9.46L25.76 9.46Q25.76 10.16 26.36 10.56L26.36 10.56L26.36 10.56Q26.96 10.95 28.01 10.95L28.01 10.95L28.01 10.95Q29.13 10.95 29.68 10.63L29.68 10.63L29.68 10.63Q30.23 10.30 30.23 9.73L30.23 9.73L30.23 9.73Q30.23 9.28 29.90 8.99L29.90 8.99L29.90 8.99Q29.58 8.69 29.11 8.52L29.11 8.52L29.11 8.52Q28.63 8.34 27.76 8.11L27.76 8.11L27.76 8.11Q26.61 7.80 25.91 7.51L25.91 7.51L25.91 7.51Q25.20 7.22 24.70 6.66L24.70 6.66L24.70 6.66Q24.19 6.09 24.19 5.17L24.19 5.17L24.19 5.17Q24.19 3.88 25.26 3.20L25.26 3.20L25.26 3.20Q26.32 2.52 28.04 2.52L28.04 2.52L28.04 2.52Q29.69 2.52 30.74 3.21L30.74 3.21L30.74 3.21Q31.78 3.91 31.78 5.31L31.78 5.31L31.78 5.47L30.02 5.47L30.02 5.32L30.02 5.32Q30.02 4.72 29.48 4.38L29.48 4.38L29.48 4.38Q28.94 4.03 28.03 4.03L28.03 4.03L28.03 4.03Q27.08 4.03 26.54 4.31L26.54 4.31L26.54 4.31Q26.00 4.59 26.00 5.10L26.00 5.10L26.00 5.10Q26.00 5.47 26.31 5.73L26.31 5.73L26.31 5.73Q26.61 5.99 27.08 6.15L27.08 6.15L27.08 6.15Q27.55 6.31 28.35 6.52L28.35 6.52L28.35 6.52Q29.51 6.83 30.25 7.13L30.25 7.13L30.25 7.13Q30.98 7.42 31.51 7.99L31.51 7.99L31.51 7.99Q32.03 8.57 32.03 9.48L32.03 9.48L32.03 9.48Q32.03 11.02 30.94 11.74L30.94 11.74L30.94 11.74Q29.85 12.46 27.97 12.46L27.97 12.46ZM33.66 3.78L33.66 2.17L35.34 2.17L35.34 3.78L33.66 3.78ZM33.66 12.29L33.66 4.93L35.34 4.93L35.34 12.29L33.66 12.29ZM39.14 12.46L39.14 12.46Q38.21 12.46 37.79 11.94L37.79 11.94L37.79 11.94Q37.38 11.41 37.38 10.63L37.38 10.63L37.38 6.30L36.48 6.30L36.48 4.93L37.41 4.93L37.72 2.87L39.06 2.87L39.06 4.93L40.32 4.93L40.32 6.30L39.06 6.30L39.06 10.46L39.06 10.46Q39.06 11.09 39.66 11.09L39.66 11.09L40.32 11.09L40.32 12.24L40.32 12.24Q40.10 12.32 39.76 12.39L39.76 12.39L39.76 12.39Q39.42 12.46 39.14 12.46L39.14 12.46ZM44.74 12.46L44.74 12.46Q42.95 12.46 42.08 11.52L42.08 11.52L42.08 11.52Q41.22 10.58 41.22 8.61L41.22 8.61L41.22 8.61Q41.22 6.64 42.09 5.70L42.09 5.70L42.09 5.70Q42.97 4.76 44.74 4.76L44.74 4.76L44.74 4.76Q46.37 4.76 47.17 5.67L47.17 5.67L47.17 5.67Q47.98 6.58 47.98 8.51L47.98 8.51L47.98 9.02L42.92 9.02L42.92 9.02Q42.97 10.11 43.39 10.62L43.39 10.62L43.39 10.62Q43.82 11.13 44.76 11.13L44.76 11.13L44.76 11.13Q45.46 11.13 45.89 10.77L45.89 10.77L45.89 10.77Q46.33 10.42 46.33 9.72L46.33 9.72L47.98 9.72L47.98 9.72Q47.98 11.07 47.08 11.77L47.08 11.77L47.08 11.77Q46.19 12.46 44.74 12.46L44.74 12.46ZM42.95 7.83L46.23 7.83L46.23 7.83Q46.23 6.09 44.74 6.09L44.74 6.09L44.74 6.09Q43.90 6.09 43.48 6.52L43.48 6.52L43.48 6.52Q43.05 6.94 42.95 7.83L42.95 7.83ZM53.37 12.29L53.37 2.69L58.58 2.69L58.58 2.69Q59.35 2.69 59.96 2.98L59.96 2.98L59.96 2.98Q60.56 3.28 60.91 3.81L60.91 3.81L60.91 3.81Q61.25 4.35 61.25 5.05L61.25 5.05L61.25 5.05Q61.25 5.85 60.81 6.44L60.81 6.44L60.81 6.44Q60.37 7.03 59.68 7.25L59.68 7.25L59.68 7.31L59.68 7.31Q60.49 7.48 61.01 8.11L61.01 8.11L61.01 8.11Q61.52 8.74 61.52 9.65L61.52 9.65L61.52 9.65Q61.52 10.95 60.70 11.62L60.70 11.62L60.70 11.62Q59.88 12.29 58.58 12.29L58.58 12.29L53.37 12.29ZM55.16 6.62L58.10 6.62L58.10 6.62Q58.72 6.62 59.07 6.29L59.07 6.29L59.07 6.29Q59.42 5.95 59.42 5.43L59.42 5.43L59.42 5.43Q59.42 4.83 59.09 4.52L59.09 4.52L59.09 4.52Q58.77 4.21 58.21 4.21L58.21 4.21L55.16 4.21L55.16 6.62ZM55.16 10.77L58.34 10.77L58.34 10.77Q58.95 10.77 59.32 10.44L59.32 10.44L59.32 10.44Q59.68 10.11 59.68 9.45L59.68 9.45L59.68 9.45Q59.68 8.82 59.32 8.47L59.32 8.47L59.32 8.47Q58.95 8.12 58.24 8.12L58.24 8.12L55.16 8.12L55.16 10.77ZM65.53 12.46L65.53 12.46Q63.15 12.46 63.15 9.90L63.15 9.90L63.15 4.93L64.83 4.93L64.83 9.60L64.83 9.60Q64.83 10.36 65.18 10.68L65.18 10.68L65.18 10.68Q65.52 11.00 66.19 11.00L66.19 11.00L66.19 11.00Q66.89 11.00 67.37 10.50L67.37 10.50L67.37 10.50Q67.84 10.00 67.84 9.21L67.84 9.21L67.84 4.93L69.52 4.93L69.52 12.29L68.14 12.29L68.00 11.31L67.90 11.31L67.90 11.31Q67.49 11.86 66.90 12.16L66.90 12.16L66.90 12.16Q66.30 12.46 65.53 12.46L65.53 12.46ZM71.48 3.78L71.48 2.17L73.16 2.17L73.16 3.78L71.48 3.78ZM71.48 12.29L71.48 4.93L73.16 4.93L73.16 12.29L71.48 12.29ZM75.11 12.29L75.11 2.17L76.79 2.17L76.79 12.29L75.11 12.29ZM81.20 12.46L81.20 12.46Q79.80 12.46 79.03 11.51L79.03 11.51L79.03 11.51Q78.26 10.56 78.26 8.60L78.26 8.60L78.26 8.60Q78.26 6.69 79.03 5.73L79.03 5.73L79.03 5.73Q79.80 4.76 81.09 4.76L81.09 4.76L81.09 4.76Q82.63 4.76 83.30 5.78L83.30 5.78L83.38 5.78L83.38 2.17L85.06 2.17L85.06 12.29L83.68 12.29L83.54 11.31L83.45 11.31L83.45 11.31Q83.09 11.87 82.50 12.17L82.50 12.17L82.50 12.17Q81.91 12.46 81.20 12.46L81.20 12.46ZM81.70 11.02L81.70 11.02Q82.57 11.02 82.98 10.44L82.98 10.44L82.98 10.44Q83.38 9.86 83.38 8.71L83.38 8.71L83.38 8.54L83.38 8.54Q83.38 6.20 81.70 6.20L81.70 6.20L81.70 6.20Q80.78 6.20 80.39 6.75L80.39 6.75L80.39 6.75Q80.00 7.31 80.00 8.53L80.00 8.53L80.00 8.71L80.00 8.71Q80.00 9.91 80.39 10.46L80.39 10.46L80.39 10.46Q80.78 11.02 81.70 11.02L81.70 11.02ZM90.09 12.46L90.09 12.46Q88.30 12.46 87.43 11.52L87.43 11.52L87.43 11.52Q86.56 10.58 86.56 8.61L86.56 8.61L86.56 8.61Q86.56 6.64 87.44 5.70L87.44 5.70L87.44 5.70Q88.31 4.76 90.09 4.76L90.09 4.76L90.09 4.76Q91.71 4.76 92.52 5.67L92.52 5.67L92.52 5.67Q93.32 6.58 93.32 8.51L93.32 8.51L93.32 9.02L88.27 9.02L88.27 9.02Q88.31 10.11 88.74 10.62L88.74 10.62L88.74 10.62Q89.17 11.13 90.10 11.13L90.10 11.13L90.10 11.13Q90.80 11.13 91.24 10.77L91.24 10.77L91.24 10.77Q91.67 10.42 91.67 9.72L91.67 9.72L93.32 9.72L93.32 9.72Q93.32 11.07 92.43 11.77L92.43 11.77L92.43 11.77Q91.53 12.46 90.09 12.46L90.09 12.46ZM88.30 7.83L91.57 7.83L91.57 7.83Q91.57 6.09 90.09 6.09L90.09 6.09L90.09 6.09Q89.25 6.09 88.82 6.52L88.82 6.52L88.82 6.52Q88.40 6.94 88.30 7.83L88.30 7.83ZM94.81 12.29L94.81 4.93L96.19 4.93L96.35 6.09L96.45 6.09L96.45 6.09Q96.95 4.76 98.10 4.76L98.10 4.76L98.10 4.76Q98.35 4.76 98.55 4.81L98.55 4.81L98.55 4.81Q98.74 4.86 98.80 4.89L98.80 4.89L98.80 6.47L98.27 6.47L98.27 6.47Q96.49 6.47 96.49 8.46L96.49 8.46L96.49 12.29L94.81 12.29ZM102.77 12.46L102.77 12.46Q101.25 12.46 100.42 11.83L100.42 11.83L100.42 11.83Q99.58 11.20 99.58 10.19L99.58 10.19L99.58 10.19Q99.58 10.07 99.59 10.02L99.59 10.02L99.59 10.02Q99.60 9.98 99.60 9.97L99.60 9.97L101.23 9.97L101.23 10.08L101.23 10.08Q101.25 10.63 101.70 10.88L101.70 10.88L101.70 10.88Q102.16 11.14 102.84 11.14L102.84 11.14L102.84 11.14Q103.46 11.14 103.89 10.94L103.89 10.94L103.89 10.94Q104.33 10.74 104.33 10.33L104.33 10.33L104.33 10.33Q104.33 10.01 104.09 9.81L104.09 9.81L104.09 9.81Q103.85 9.60 103.50 9.48L103.50 9.48L103.50 9.48Q103.15 9.37 102.51 9.21L102.51 9.21L102.51 9.21Q101.64 9.00 101.09 8.79L101.09 8.79L101.09 8.79Q100.53 8.58 100.14 8.13L100.14 8.13L100.14 8.13Q99.75 7.69 99.75 6.96L99.75 6.96L99.75 6.96Q99.75 5.91 100.62 5.33L100.62 5.33L100.62 5.33Q101.49 4.76 102.87 4.76L102.87 4.76L102.87 4.76Q103.73 4.76 104.40 5.01L104.40 5.01L104.40 5.01Q105.07 5.26 105.44 5.72L105.44 5.72L105.44 5.72Q105.81 6.17 105.81 6.76L105.81 6.76L105.80 7.07L104.16 7.07L104.16 7.01L104.16 7.01Q104.16 6.58 103.80 6.33L103.80 6.33L103.80 6.33Q103.45 6.09 102.77 6.09L102.77 6.09L102.77 6.09Q102.12 6.09 101.78 6.29L101.78 6.29L101.78 6.29Q101.44 6.50 101.44 6.82L101.44 6.82L101.44 6.82Q101.44 7.21 101.86 7.40L101.86 7.40L101.86 7.40Q102.27 7.59 103.12 7.77L103.12 7.77L103.12 7.77Q104.05 7.98 104.62 8.20L104.62 8.20L104.62 8.20Q105.18 8.41 105.60 8.88L105.60 8.88L105.60 8.88Q106.02 9.34 106.02 10.12L106.02 10.12L106.02 10.12Q106.02 11.34 105.15 11.90L105.15 11.90L105.15 11.90Q104.27 12.46 102.77 12.46L102.77 12.46Z"></path></g><linearGradient data-v-d3f97b9e="" gradientTransform="rotate(25)" id="8d291358-a3dc-497c-a8fe-f5d8366bc4ef" x1="0%" y1="0%" x2="100%" y2="0%"><stop data-v-d3f97b9e="" offset="0%" style="stop-color: rgb(0, 118, 221); stop-opacity: 1;"></stop><stop data-v-d3f97b9e="" offset="100%" style="stop-color: rgb(0, 205, 233); stop-opacity: 1;"></stop></linearGradient><g data-v-d3f97b9e="" id="c05a7c37-a274-45ef-b6e2-1a543ae28307" transform="matrix(1.1520148501914282,0,0,1.1520148501914282,-0.9701699819350722,-15.118782940216)" stroke="none" fill="url(#8d291358-a3dc-497c-a8fe-f5d8366bc4ef)"><path d="M42.021 89.823l56.348-36.234-15.803 7.63.008.073-.047-.054-.263.127.017.024zM79.395 61.174l-40.5-3.783-2.084 33.859zM3.71 38.712l31.208 53.35 2.148-34.916zM95.209 45.172L80.775 27.29l-1.543 5.226 16.696 13.659zM98.135 50.979L79.758 35.645l2.523 22.987zM61.512 33.498l18.246 21.006-2.334-21.148zM59.756 34.836L39.467 54.979l40.965 3.829zM58.445 33.191l-21.771-5.826 2.3 25.606zM37.133 54.393l-2.311-25.856-28.046 9.102zM8.923 35.031l25.604-8.739-8.868-6.425zM1.63 26.184l1.62 11.301 17.707-16.463zM28.355 14.604L7.837 21.987l18.264-4.878zM36.751 24.86l23.38 6.336 17.017-.289 1.524-5.158-10.721-5.896-19.778-5.367-15.917-.548-4.183 4.648z"></path></g><!----><g data-v-d3f97b9e="" id="560078c0-98f7-4237-9322-7ff492dfd816" fill="#000000" transform="matrix(1.4710138106398072,0,0,1.4710138106398072,130.4150545087333,54.66022160518564)"><path d="M7.81 9.52C7.39 9.11 6.79 8.86 6.01 8.75C6.33 8.67 6.61 8.55 6.86 8.40C7.11 8.25 7.34 8.08 7.50 7.87C7.67 7.66 7.81 7.43 7.90 7.20C7.98 6.96 8.04 6.71 8.04 6.44C8.04 6.05 7.95 5.68 7.83 5.38C7.70 5.07 7.49 4.80 7.22 4.58C6.96 4.37 6.62 4.20 6.20 4.09C5.78 3.98 5.29 3.92 4.73 3.92L1.89 3.92L0.70 3.92L0.70 4.19C0.70 4.34 0.80 4.42 0.98 4.44L1.12 4.44C1.19 4.44 1.29 4.45 1.43 4.45C1.57 4.45 1.72 4.47 1.89 4.47L1.89 13.26C1.72 13.26 1.57 13.27 1.43 13.27C1.29 13.27 1.19 13.29 1.12 13.29L0.98 13.29C0.80 13.30 0.71 13.38 0.71 13.54L0.71 13.82L1.89 13.82L5.10 13.82C5.63 13.82 6.09 13.76 6.51 13.64C6.93 13.51 7.28 13.34 7.56 13.10C7.84 12.87 8.06 12.59 8.22 12.25C8.37 11.91 8.44 11.54 8.44 11.12C8.44 10.46 8.23 9.93 7.81 9.52ZM2.60 4.48L4.73 4.48C5.61 4.48 6.27 4.66 6.69 5.00C7.11 5.35 7.32 5.84 7.32 6.51C7.32 6.76 7.28 7.03 7.18 7.27C7.08 7.50 6.93 7.71 6.72 7.91C6.51 8.11 6.24 8.26 5.92 8.37C5.60 8.48 5.21 8.55 4.75 8.55L2.60 8.55ZM7.06 12.68C6.61 13.06 5.95 13.24 5.08 13.24L2.60 13.24L2.60 9.07L5.10 9.07C5.52 9.07 5.88 9.11 6.20 9.21C6.52 9.31 6.80 9.45 7.03 9.62C7.25 9.80 7.42 10.00 7.55 10.25C7.66 10.50 7.73 10.79 7.73 11.10C7.73 11.79 7.50 12.31 7.06 12.68ZM25.90 8.86C25.90 8.11 25.77 7.41 25.55 6.79C25.33 6.17 25.00 5.64 24.58 5.19C24.16 4.75 23.67 4.40 23.10 4.16C22.53 3.92 21.87 3.79 21.17 3.79C20.47 3.79 19.84 3.92 19.26 4.16C18.69 4.40 18.19 4.75 17.77 5.19C17.35 5.64 17.02 6.17 16.80 6.79C16.58 7.41 16.45 8.11 16.45 8.86C16.45 9.63 16.58 10.33 16.80 10.95C17.02 11.56 17.35 12.10 17.77 12.54C18.19 12.99 18.69 13.33 19.26 13.57C19.84 13.80 20.47 13.93 21.17 13.93C21.87 13.93 22.53 13.80 23.10 13.57C23.67 13.33 24.16 12.99 24.58 12.54C25.00 12.10 25.33 11.56 25.55 10.95C25.77 10.33 25.90 9.63 25.90 8.86ZM25.14 8.86C25.14 9.56 25.06 10.18 24.86 10.72C24.67 11.27 24.40 11.75 24.05 12.12C23.70 12.50 23.28 12.81 22.79 13.01C22.30 13.20 21.77 13.30 21.17 13.30C20.58 13.30 20.05 13.20 19.56 13.01C19.07 12.81 18.65 12.50 18.30 12.12C17.95 11.75 17.67 11.27 17.47 10.72C17.28 10.18 17.19 9.56 17.19 8.86C17.19 8.18 17.28 7.55 17.47 7.00C17.67 6.45 17.95 5.98 18.30 5.60C18.65 5.22 19.07 4.91 19.56 4.72C20.05 4.52 20.58 4.41 21.17 4.41C21.77 4.41 22.30 4.52 22.79 4.72C23.28 4.91 23.70 5.22 24.05 5.60C24.40 5.98 24.67 6.45 24.86 7.00C25.06 7.55 25.14 8.18 25.14 8.86ZM43.44 8.86C43.44 8.11 43.32 7.41 43.09 6.79C42.87 6.17 42.55 5.64 42.13 5.19C41.71 4.75 41.22 4.40 40.64 4.16C40.07 3.92 39.41 3.79 38.71 3.79C38.01 3.79 37.38 3.92 36.81 4.16C36.23 4.40 35.73 4.75 35.31 5.19C34.89 5.64 34.57 6.17 34.34 6.79C34.12 7.41 33.99 8.11 33.99 8.86C33.99 9.63 34.12 10.33 34.34 10.95C34.57 11.56 34.89 12.10 35.31 12.54C35.73 12.99 36.23 13.33 36.81 13.57C37.38 13.80 38.01 13.93 38.71 13.93C39.41 13.93 40.07 13.80 40.64 13.57C41.22 13.33 41.71 12.99 42.13 12.54C42.55 12.10 42.87 11.56 43.09 10.95C43.32 10.33 43.44 9.63 43.44 8.86ZM42.69 8.86C42.69 9.56 42.60 10.18 42.41 10.72C42.21 11.27 41.94 11.75 41.59 12.12C41.24 12.50 40.82 12.81 40.33 13.01C39.84 13.20 39.31 13.30 38.71 13.30C38.12 13.30 37.59 13.20 37.10 13.01C36.61 12.81 36.19 12.50 35.84 12.12C35.49 11.75 35.21 11.27 35.01 10.72C34.82 10.18 34.73 9.56 34.73 8.86C34.73 8.18 34.82 7.55 35.01 7.00C35.21 6.45 35.49 5.98 35.84 5.60C36.19 5.22 36.61 4.91 37.10 4.72C37.59 4.52 38.12 4.41 38.71 4.41C39.31 4.41 39.84 4.52 40.33 4.72C40.82 4.91 41.24 5.22 41.59 5.60C41.94 5.98 42.21 6.45 42.41 7.00C42.60 7.55 42.69 8.18 42.69 8.86ZM57.44 9.91C57.30 9.65 57.11 9.39 56.87 9.21C56.63 9.03 56.38 8.88 56.08 8.75C55.79 8.62 55.47 8.51 55.16 8.41C54.85 8.32 54.54 8.20 54.25 8.11C53.96 7.99 53.69 7.87 53.45 7.71C53.21 7.56 53.03 7.38 52.89 7.15C52.75 6.93 52.67 6.65 52.67 6.31C52.67 6.06 52.72 5.82 52.82 5.59C52.92 5.35 53.06 5.15 53.24 4.97C53.42 4.79 53.65 4.65 53.93 4.55C54.21 4.45 54.52 4.40 54.88 4.40C55.55 4.40 56.17 4.51 56.73 4.75C56.77 5.54 56.80 5.99 56.80 6.06C56.81 6.29 56.90 6.41 57.09 6.41L57.43 6.41L57.43 4.38C56.55 4.00 55.71 3.81 54.88 3.81C54.42 3.81 54.01 3.88 53.65 4.02C53.28 4.16 52.99 4.34 52.75 4.58C52.51 4.82 52.32 5.08 52.19 5.39C52.07 5.70 52.01 6.02 52.01 6.36C52.01 6.78 52.08 7.14 52.22 7.42C52.36 7.70 52.56 7.92 52.79 8.12C53.03 8.32 53.28 8.46 53.58 8.58C53.87 8.71 54.19 8.82 54.50 8.92C54.81 9.02 55.10 9.11 55.41 9.21C55.71 9.31 55.97 9.45 56.21 9.60C56.45 9.76 56.63 9.94 56.77 10.16C56.91 10.39 56.98 10.68 56.98 11.03C56.98 11.35 56.92 11.66 56.81 11.94C56.70 12.22 56.55 12.46 56.34 12.67C56.13 12.88 55.86 13.05 55.55 13.16C55.24 13.29 54.89 13.33 54.50 13.33C53.72 13.33 53.06 13.20 52.53 12.95C52.51 12.75 52.51 12.54 52.50 12.32C52.49 12.10 52.49 11.91 52.47 11.76C52.46 11.61 52.46 11.52 52.46 11.51C52.44 11.28 52.35 11.17 52.15 11.17L51.81 11.17L51.81 13.02L51.81 13.20L51.81 13.38C52.67 13.75 53.55 13.93 54.47 13.93C54.98 13.93 55.43 13.85 55.82 13.69C56.21 13.54 56.55 13.31 56.81 13.05C57.08 12.78 57.30 12.46 57.44 12.10C57.58 11.73 57.65 11.34 57.65 10.92C57.65 10.51 57.58 10.18 57.44 9.91ZM73.43 3.92L73.23 3.92L65.94 3.92L65.73 3.92L65.63 3.92L65.63 5.96L65.98 5.96C66.18 5.96 66.26 5.85 66.28 5.63C66.28 5.53 66.30 5.17 66.33 4.52L69.23 4.52L69.23 13.26C69.06 13.26 68.92 13.27 68.78 13.27C68.64 13.27 68.53 13.29 68.46 13.29L68.33 13.29C68.15 13.30 68.05 13.38 68.05 13.54L68.05 13.82L69.23 13.82L69.94 13.82L71.13 13.82L71.13 13.54C71.13 13.38 71.04 13.30 70.85 13.29L70.71 13.29C70.64 13.29 70.55 13.27 70.41 13.27C70.27 13.27 70.11 13.26 69.94 13.26L69.94 4.52L72.83 4.52C72.87 5.24 72.88 5.60 72.88 5.63C72.90 5.85 73.00 5.96 73.19 5.96L73.53 5.96L73.53 3.92ZM100.14 3.92L100.07 3.92L99.51 3.92L99.40 3.92L98 3.92L98 4.19C98 4.34 98.10 4.42 98.28 4.44L98.39 4.44C98.45 4.44 98.52 4.45 98.63 4.45C98.74 4.45 98.87 4.47 99.01 4.47L96.42 8.64C96.35 8.75 96.29 8.85 96.25 8.95C96.21 9.04 96.17 9.16 96.12 9.25C96.08 9.16 96.04 9.04 96.00 8.95C95.96 8.85 95.90 8.75 95.83 8.64L93.23 4.47C93.37 4.47 93.49 4.45 93.60 4.45C93.72 4.45 93.80 4.44 93.86 4.44L93.95 4.44C94.14 4.42 94.23 4.34 94.23 4.19L94.23 3.92L92.83 3.92L92.72 3.92L92.16 3.92L92.09 3.92L91.64 3.92L91.64 4.19C91.64 4.34 91.74 4.42 91.92 4.44C92.16 4.45 92.34 4.47 92.44 4.47L95.76 9.73L95.76 13.26C95.59 13.26 95.44 13.27 95.30 13.27C95.16 13.27 95.06 13.29 94.99 13.29L94.86 13.29C94.68 13.30 94.58 13.38 94.58 13.54L94.58 13.82L95.76 13.82L96.47 13.82L97.65 13.82L97.65 13.54C97.65 13.38 97.57 13.30 97.38 13.29L97.24 13.29C97.17 13.29 97.08 13.27 96.94 13.27C96.80 13.27 96.64 13.26 96.47 13.26L96.47 9.73L99.79 4.47C99.90 4.47 100.07 4.45 100.31 4.44C100.49 4.42 100.59 4.34 100.59 4.19L100.59 3.92ZM117.33 8.86C117.33 8.11 117.21 7.41 116.98 6.79C116.76 6.17 116.44 5.64 116.02 5.19C115.60 4.75 115.11 4.40 114.53 4.16C113.96 3.92 113.30 3.79 112.60 3.79C111.90 3.79 111.27 3.92 110.70 4.16C110.12 4.40 109.62 4.75 109.20 5.19C108.78 5.64 108.46 6.17 108.23 6.79C108.01 7.41 107.88 8.11 107.88 8.86C107.88 9.63 108.01 10.33 108.23 10.95C108.46 11.56 108.78 12.10 109.20 12.54C109.62 12.99 110.12 13.33 110.70 13.57C111.27 13.80 111.90 13.93 112.60 13.93C113.30 13.93 113.96 13.80 114.53 13.57C115.11 13.33 115.60 12.99 116.02 12.54C116.44 12.10 116.76 11.56 116.98 10.95C117.21 10.33 117.33 9.63 117.33 8.86ZM116.58 8.86C116.58 9.56 116.49 10.18 116.30 10.72C116.10 11.27 115.84 11.75 115.49 12.12C115.14 12.50 114.72 12.81 114.23 13.01C113.74 13.20 113.20 13.30 112.60 13.30C112.01 13.30 111.48 13.20 110.99 13.01C110.50 12.81 110.08 12.50 109.73 12.12C109.38 11.75 109.10 11.27 108.91 10.72C108.71 10.18 108.63 9.56 108.63 8.86C108.63 8.18 108.71 7.55 108.91 7.00C109.10 6.45 109.38 5.98 109.73 5.60C110.08 5.22 110.50 4.91 110.99 4.72C111.48 4.52 112.01 4.41 112.60 4.41C113.20 4.41 113.74 4.52 114.23 4.72C114.72 4.91 115.14 5.22 115.49 5.60C115.84 5.98 116.10 6.45 116.30 7.00C116.49 7.55 116.58 8.18 116.58 8.86ZM133.57 3.92L132.86 3.92L131.50 3.92L131.50 4.19C131.50 4.34 131.60 4.42 131.78 4.44L131.95 4.44C132.05 4.44 132.19 4.45 132.36 4.45C132.52 4.45 132.69 4.47 132.86 4.47L132.86 10.04C132.86 10.50 132.79 10.92 132.65 11.33C132.51 11.73 132.31 12.08 132.05 12.38C131.78 12.67 131.47 12.89 131.10 13.06C130.72 13.23 130.30 13.31 129.82 13.31C129.35 13.31 128.91 13.23 128.53 13.06C128.16 12.89 127.83 12.66 127.58 12.36C127.32 12.07 127.13 11.72 126.99 11.33C126.85 10.93 126.78 10.50 126.78 10.04L126.78 4.47C126.95 4.47 127.12 4.45 127.29 4.45C127.46 4.45 127.60 4.44 127.69 4.44L127.86 4.44C128.04 4.42 128.14 4.34 128.14 4.19L128.14 3.92L126.78 3.92L126.07 3.92L124.89 3.92L124.89 4.19C124.89 4.34 124.98 4.42 125.16 4.44L125.30 4.44C125.37 4.44 125.47 4.45 125.61 4.45C125.75 4.45 125.90 4.47 126.07 4.47L126.07 10.04C126.07 10.58 126.15 11.09 126.32 11.56C126.49 12.04 126.74 12.46 127.06 12.81C127.39 13.16 127.79 13.44 128.25 13.64C128.72 13.83 129.25 13.93 129.82 13.93C130.40 13.93 130.91 13.83 131.38 13.64C131.84 13.44 132.24 13.16 132.57 12.81C132.89 12.46 133.14 12.04 133.31 11.56C133.48 11.09 133.57 10.58 133.57 10.04L133.57 4.47C133.74 4.47 133.88 4.45 134.02 4.45C134.16 4.45 134.27 4.44 134.34 4.44L134.47 4.44C134.65 4.42 134.75 4.34 134.75 4.19L134.75 3.92ZM150.77 13.29L150.67 13.29L150.49 13.29C150.40 13.29 150.32 13.27 150.23 13.27L147.27 9.53C147.18 9.42 147.07 9.32 146.96 9.25C147.39 9.21 147.78 9.11 148.13 8.96C148.48 8.81 148.76 8.61 149.02 8.37C149.25 8.13 149.45 7.85 149.58 7.55C149.70 7.24 149.77 6.89 149.77 6.51C149.77 5.66 149.49 5.03 148.93 4.58C148.37 4.14 147.52 3.92 146.37 3.92L143.96 3.92L142.79 3.92L142.79 4.19C142.79 4.34 142.87 4.42 143.05 4.44L143.19 4.44C143.26 4.44 143.36 4.45 143.50 4.45C143.64 4.45 143.79 4.47 143.96 4.47L143.96 13.26C143.79 13.26 143.64 13.27 143.50 13.27C143.36 13.27 143.26 13.29 143.19 13.29L143.05 13.29C142.87 13.30 142.77 13.38 142.77 13.54L142.77 13.82L143.96 13.82L144.68 13.82L145.85 13.82L145.85 13.54C145.85 13.38 145.75 13.30 145.57 13.29L145.43 13.29C145.36 13.29 145.26 13.27 145.12 13.27C144.98 13.27 144.84 13.26 144.68 13.26L144.68 9.34L145.85 9.34C146.05 9.34 146.19 9.35 146.27 9.39C146.36 9.44 146.44 9.52 146.52 9.62L149.70 13.64C149.76 13.71 149.80 13.75 149.86 13.78C149.91 13.80 149.98 13.82 150.05 13.82L150.12 13.82L150.67 13.82L151.03 13.82L151.03 13.54C151.03 13.38 150.95 13.30 150.77 13.29ZM146.27 8.81L144.68 8.81L144.68 4.48L146.37 4.48C147.25 4.48 147.92 4.66 148.39 5.00C148.85 5.33 149.07 5.87 149.07 6.57C149.07 6.92 149.02 7.21 148.89 7.49C148.76 7.77 148.57 7.99 148.33 8.19C148.09 8.39 147.80 8.55 147.45 8.65C147.10 8.75 146.71 8.81 146.27 8.81ZM175.34 9.91C175.20 9.65 175 9.39 174.76 9.21C174.52 9.03 174.27 8.88 173.98 8.75C173.68 8.62 173.36 8.51 173.05 8.41C172.75 8.32 172.44 8.20 172.14 8.11C171.85 7.99 171.58 7.87 171.35 7.71C171.11 7.56 170.93 7.38 170.79 7.15C170.65 6.93 170.56 6.65 170.56 6.31C170.56 6.06 170.62 5.82 170.72 5.59C170.81 5.35 170.95 5.15 171.14 4.97C171.32 4.79 171.54 4.65 171.82 4.55C172.10 4.45 172.41 4.40 172.77 4.40C173.45 4.40 174.06 4.51 174.62 4.75C174.66 5.54 174.69 5.99 174.69 6.06C174.71 6.29 174.79 6.41 174.99 6.41L175.32 6.41L175.32 4.38C174.44 4.00 173.60 3.81 172.77 3.81C172.31 3.81 171.91 3.88 171.54 4.02C171.18 4.16 170.88 4.34 170.65 4.58C170.41 4.82 170.21 5.08 170.09 5.39C169.96 5.70 169.90 6.02 169.90 6.36C169.90 6.78 169.97 7.14 170.11 7.42C170.25 7.70 170.45 7.92 170.69 8.12C170.93 8.32 171.18 8.46 171.47 8.58C171.77 8.71 172.09 8.82 172.40 8.92C172.70 9.02 173.00 9.11 173.31 9.21C173.60 9.31 173.87 9.45 174.10 9.60C174.34 9.76 174.52 9.94 174.66 10.16C174.80 10.39 174.87 10.68 174.87 11.03C174.87 11.35 174.82 11.66 174.71 11.94C174.59 12.22 174.44 12.46 174.23 12.67C174.02 12.88 173.75 13.05 173.45 13.16C173.14 13.29 172.79 13.33 172.40 13.33C171.61 13.33 170.95 13.20 170.42 12.95C170.41 12.75 170.41 12.54 170.39 12.32C170.38 12.10 170.38 11.91 170.37 11.76C170.35 11.61 170.35 11.52 170.35 11.51C170.34 11.28 170.24 11.17 170.04 11.17L169.71 11.17L169.71 13.02L169.71 13.20L169.71 13.38C170.56 13.75 171.44 13.93 172.37 13.93C172.87 13.93 173.32 13.85 173.71 13.69C174.10 13.54 174.44 13.31 174.71 13.05C174.97 12.78 175.20 12.46 175.34 12.10C175.48 11.73 175.55 11.34 175.55 10.92C175.55 10.51 175.48 10.18 175.34 9.91ZM193.10 13.22L192.64 13.17L188.86 3.91L188.15 3.91L184.35 13.17L183.90 13.22C183.72 13.23 183.64 13.33 183.64 13.50L183.64 13.82L184.09 13.82L184.38 13.82L184.63 13.82L184.73 13.82L186.05 13.82L186.05 13.50C186.05 13.31 185.93 13.23 185.72 13.22C185.71 13.22 185.68 13.20 185.64 13.20C185.60 13.20 185.54 13.19 185.44 13.19C185.35 13.19 185.22 13.19 185.08 13.17L186.06 10.75L186.13 10.57L190.86 10.57L190.93 10.75L191.91 13.17C191.77 13.19 191.66 13.19 191.56 13.19C191.46 13.19 191.39 13.20 191.35 13.20C191.31 13.20 191.28 13.22 191.27 13.22C191.06 13.23 190.95 13.31 190.95 13.50L190.95 13.82L192.26 13.82L192.36 13.82L192.63 13.82L192.91 13.82L193.37 13.82L193.37 13.50C193.37 13.33 193.28 13.23 193.10 13.22ZM188.30 5.22C188.33 5.14 188.37 5.04 188.40 4.94C188.43 4.84 188.47 4.75 188.50 4.63C188.52 4.75 188.57 4.84 188.59 4.94C188.62 5.04 188.66 5.12 188.69 5.21L190.65 10.04L186.35 10.04ZM207.97 11.97C207.77 11.97 207.69 12.08 207.68 12.31C207.68 12.32 207.68 12.38 207.66 12.43C207.65 12.49 207.65 12.59 207.63 12.71C207.62 12.84 207.61 13.01 207.59 13.20L203.50 13.20L203.50 4.47C203.67 4.47 203.81 4.45 203.95 4.45C204.09 4.45 204.20 4.44 204.27 4.44L204.40 4.44C204.58 4.42 204.68 4.34 204.68 4.19L204.68 3.92L203.50 3.92L202.79 3.92L201.60 3.92L201.60 4.19C201.60 4.34 201.70 4.42 201.88 4.44L202.02 4.44C202.09 4.44 202.19 4.45 202.33 4.45C202.47 4.45 202.62 4.47 202.79 4.47L202.79 13.26C202.62 13.26 202.47 13.27 202.33 13.27C202.19 13.27 202.09 13.29 202.02 13.29L201.88 13.29C201.70 13.30 201.60 13.38 201.60 13.54L201.60 13.82L202.79 13.82L208.07 13.82L208.19 13.82L208.32 13.82L208.32 13.55L208.32 12.99L208.32 11.97L208.04 11.97ZM217.94 3.92L216.75 3.92L216.75 4.19C216.75 4.34 216.85 4.42 217.03 4.44L217.17 4.44C217.24 4.44 217.34 4.45 217.48 4.45C217.62 4.45 217.77 4.47 217.94 4.47L217.94 13.26C217.77 13.26 217.62 13.27 217.48 13.27C217.34 13.27 217.24 13.29 217.17 13.29L217.03 13.29C216.85 13.30 216.76 13.38 216.76 13.54L216.76 13.82L217.94 13.82L223.87 13.82L223.87 13.22L223.87 11.76L223.52 11.76C223.33 11.76 223.24 11.89 223.23 12.11C223.23 12.14 223.22 12.19 223.22 12.29C223.22 12.39 223.22 12.53 223.20 12.74C223.19 12.95 223.17 13.09 223.17 13.22L218.65 13.22L218.65 9.09L222.60 9.09L222.60 8.51L218.65 8.51L218.65 4.51L223.17 4.51C223.20 5.12 223.23 5.50 223.23 5.63C223.24 5.85 223.33 5.96 223.52 5.96L223.87 5.96L223.87 4.51L223.87 3.92ZM238.18 9.91C238.04 9.65 237.85 9.39 237.61 9.21C237.37 9.03 237.12 8.88 236.82 8.75C236.53 8.62 236.21 8.51 235.90 8.41C235.59 8.32 235.28 8.20 234.99 8.11C234.70 7.99 234.43 7.87 234.19 7.71C233.95 7.56 233.77 7.38 233.63 7.15C233.49 6.93 233.41 6.65 233.41 6.31C233.41 6.06 233.46 5.82 233.56 5.59C233.66 5.35 233.80 5.15 233.98 4.97C234.16 4.79 234.39 4.65 234.67 4.55C234.95 4.45 235.26 4.40 235.62 4.40C236.29 4.40 236.91 4.51 237.47 4.75C237.51 5.54 237.54 5.99 237.54 6.06C237.55 6.29 237.64 6.41 237.83 6.41L238.17 6.41L238.17 4.38C237.29 4.00 236.45 3.81 235.62 3.81C235.16 3.81 234.75 3.88 234.39 4.02C234.02 4.16 233.73 4.34 233.49 4.58C233.25 4.82 233.06 5.08 232.93 5.39C232.81 5.70 232.75 6.02 232.75 6.36C232.75 6.78 232.82 7.14 232.96 7.42C233.10 7.70 233.30 7.92 233.53 8.12C233.77 8.32 234.02 8.46 234.32 8.58C234.61 8.71 234.93 8.82 235.24 8.92C235.55 9.02 235.84 9.11 236.15 9.21C236.45 9.31 236.71 9.45 236.95 9.60C237.19 9.76 237.37 9.94 237.51 10.16C237.65 10.39 237.72 10.68 237.72 11.03C237.72 11.35 237.66 11.66 237.55 11.94C237.44 12.22 237.29 12.46 237.08 12.67C236.87 12.88 236.60 13.05 236.29 13.16C235.98 13.29 235.63 13.33 235.24 13.33C234.46 13.33 233.80 13.20 233.27 12.95C233.25 12.75 233.25 12.54 233.24 12.32C233.23 12.10 233.23 11.91 233.21 11.76C233.20 11.61 233.20 11.52 233.20 11.51C233.18 11.28 233.09 11.17 232.89 11.17L232.55 11.17L232.55 13.02L232.55 13.20L232.55 13.38C233.41 13.75 234.29 13.93 235.21 13.93C235.72 13.93 236.17 13.85 236.56 13.69C236.95 13.54 237.29 13.31 237.55 13.05C237.82 12.78 238.04 12.46 238.18 12.10C238.32 11.73 238.39 11.34 238.39 10.92C238.39 10.51 238.32 10.18 238.18 9.91ZM266.29 8.86C266.29 8.11 266.17 7.41 265.94 6.79C265.72 6.17 265.40 5.64 264.98 5.19C264.56 4.75 264.07 4.40 263.49 4.16C262.92 3.92 262.26 3.79 261.56 3.79C260.86 3.79 260.23 3.92 259.66 4.16C259.08 4.40 258.58 4.75 258.16 5.19C257.74 5.64 257.42 6.17 257.19 6.79C256.97 7.41 256.84 8.11 256.84 8.86C256.84 9.63 256.97 10.33 257.19 10.95C257.42 11.56 257.74 12.10 258.16 12.54C258.58 12.99 259.08 13.33 259.66 13.57C260.23 13.80 260.86 13.93 261.56 13.93C262.26 13.93 262.92 13.80 263.49 13.57C264.07 13.33 264.56 12.99 264.98 12.54C265.40 12.10 265.72 11.56 265.94 10.95C266.17 10.33 266.29 9.63 266.29 8.86ZM265.54 8.86C265.54 9.56 265.45 10.18 265.26 10.72C265.06 11.27 264.80 11.75 264.45 12.12C264.10 12.50 263.68 12.81 263.19 13.01C262.70 13.20 262.16 13.30 261.56 13.30C260.97 13.30 260.44 13.20 259.95 13.01C259.46 12.81 259.04 12.50 258.69 12.12C258.34 11.75 258.06 11.27 257.87 10.72C257.67 10.18 257.59 9.56 257.59 8.86C257.59 8.18 257.67 7.55 257.87 7.00C258.06 6.45 258.34 5.98 258.69 5.60C259.04 5.22 259.46 4.91 259.95 4.72C260.44 4.52 260.97 4.41 261.56 4.41C262.16 4.41 262.70 4.52 263.19 4.72C263.68 4.91 264.10 5.22 264.45 5.60C264.80 5.98 265.06 6.45 265.26 7.00C265.45 7.55 265.54 8.18 265.54 8.86ZM281.81 13.29L281.74 13.29L281.62 13.29C281.58 13.29 281.51 13.27 281.41 13.27C281.32 13.27 281.20 13.26 281.08 13.26L281.08 9.37C281.08 8.96 281.02 8.60 280.92 8.27C280.83 7.95 280.69 7.67 280.49 7.45C280.29 7.22 280.06 7.06 279.76 6.93C279.47 6.80 279.13 6.75 278.75 6.75C278.24 6.75 277.76 6.87 277.34 7.11C276.92 7.36 276.56 7.67 276.23 8.08L276.18 7.03C276.16 6.92 276.09 6.86 275.97 6.86L275.60 6.86L274.60 6.86L274.60 7.13C274.60 7.28 274.68 7.36 274.86 7.38L274.95 7.38C274.97 7.38 275.00 7.39 275.04 7.39L275.25 7.39C275.35 7.39 275.48 7.41 275.60 7.41L275.60 13.26C275.44 13.26 275.30 13.29 275.18 13.29L274.96 13.29L274.86 13.29C274.68 13.30 274.60 13.38 274.60 13.54L274.60 13.82L275.60 13.82L276.26 13.82L277.27 13.82L277.27 13.54C277.27 13.38 277.19 13.30 277.00 13.29L276.92 13.29L276.82 13.29C276.78 13.29 276.71 13.27 276.61 13.27C276.51 13.27 276.39 13.26 276.26 13.26L276.26 8.60C276.57 8.19 276.92 7.87 277.31 7.63C277.70 7.39 278.12 7.28 278.59 7.28C279.20 7.28 279.66 7.46 279.96 7.83C280.25 8.20 280.41 8.71 280.41 9.37L280.41 13.82L281.08 13.82L282.09 13.82L282.09 13.54C282.09 13.38 281.99 13.30 281.81 13.29ZM292.77 13.29L292.70 13.29L292.59 13.29C292.54 13.29 292.47 13.27 292.38 13.27C292.28 13.27 292.17 13.26 292.04 13.26L292.04 3.63L291.37 3.63L290.36 3.63L290.36 3.91C290.36 4.06 290.46 4.14 290.64 4.16L290.71 4.16C290.74 4.16 290.78 4.17 290.82 4.17L291.03 4.17C291.13 4.17 291.24 4.19 291.37 4.19L291.37 13.26C291.21 13.26 291.07 13.29 290.96 13.29L290.72 13.29L290.64 13.29C290.46 13.30 290.36 13.38 290.36 13.54L290.36 13.82L291.37 13.82L292.04 13.82L293.05 13.82L293.05 13.54C293.05 13.38 292.95 13.30 292.77 13.29ZM302.19 4.89C302.25 4.94 302.32 4.98 302.39 5.01C302.46 5.04 302.54 5.07 302.62 5.07C302.71 5.07 302.79 5.04 302.86 5.01C302.93 4.98 303.00 4.94 303.06 4.89C303.11 4.83 303.17 4.76 303.20 4.69C303.23 4.62 303.25 4.54 303.25 4.45C303.25 4.37 303.23 4.30 303.20 4.21C303.17 4.14 303.11 4.07 303.06 4.02C303.00 3.96 302.93 3.91 302.86 3.88C302.79 3.85 302.71 3.84 302.62 3.84C302.54 3.84 302.46 3.85 302.39 3.88C302.32 3.91 302.25 3.96 302.19 4.02C302.13 4.07 302.09 4.14 302.06 4.21C302.04 4.28 302.01 4.37 302.01 4.45C302.01 4.54 302.04 4.62 302.06 4.69C302.09 4.76 302.13 4.83 302.19 4.89ZM303.69 13.29L303.62 13.29L303.51 13.29C303.46 13.29 303.39 13.27 303.30 13.27C303.20 13.27 303.09 13.26 302.96 13.26L302.96 6.85L302.29 6.85L301.28 6.85L301.28 7.13C301.28 7.28 301.38 7.36 301.56 7.38L301.63 7.38C301.66 7.38 301.70 7.39 301.74 7.39L301.95 7.39C302.05 7.39 302.16 7.41 302.29 7.41L302.29 13.26C302.13 13.26 301.99 13.29 301.88 13.29L301.64 13.29L301.56 13.29C301.38 13.30 301.28 13.38 301.28 13.54L301.28 13.82L302.29 13.82L302.96 13.82L303.97 13.82L303.97 13.54C303.97 13.38 303.87 13.30 303.69 13.29ZM319.47 13.29L319.40 13.29L319.28 13.29C319.24 13.29 319.17 13.27 319.07 13.27C318.98 13.27 318.86 13.26 318.74 13.26L318.74 9.37C318.74 8.96 318.68 8.60 318.58 8.27C318.49 7.95 318.35 7.67 318.15 7.45C317.95 7.22 317.72 7.06 317.42 6.93C317.13 6.80 316.79 6.75 316.41 6.75C315.90 6.75 315.42 6.87 315.00 7.11C314.58 7.36 314.22 7.67 313.89 8.08L313.84 7.03C313.82 6.92 313.75 6.86 313.63 6.86L313.26 6.86L312.26 6.86L312.26 7.13C312.26 7.28 312.34 7.36 312.52 7.38L312.61 7.38C312.63 7.38 312.66 7.39 312.70 7.39L312.91 7.39C313.01 7.39 313.14 7.41 313.26 7.41L313.26 13.26C313.10 13.26 312.96 13.29 312.84 13.29L312.62 13.29L312.52 13.29C312.34 13.30 312.26 13.38 312.26 13.54L312.26 13.82L313.26 13.82L313.92 13.82L314.93 13.82L314.93 13.54C314.93 13.38 314.85 13.30 314.66 13.29L314.58 13.29L314.48 13.29C314.44 13.29 314.37 13.27 314.27 13.27C314.17 13.27 314.05 13.26 313.92 13.26L313.92 8.60C314.23 8.19 314.58 7.87 314.97 7.63C315.36 7.39 315.78 7.28 316.25 7.28C316.86 7.28 317.32 7.46 317.62 7.83C317.91 8.20 318.07 8.71 318.07 9.37L318.07 13.82L318.74 13.82L319.75 13.82L319.75 13.54C319.75 13.38 319.65 13.30 319.47 13.29ZM331.02 6.73C330.53 6.73 330.08 6.83 329.69 7.00C329.29 7.17 328.97 7.41 328.71 7.71C328.44 8.02 328.23 8.39 328.09 8.81C327.95 9.23 327.87 9.69 327.87 10.19C327.87 10.78 327.95 11.31 328.10 11.77C328.26 12.24 328.47 12.61 328.75 12.94C329.03 13.26 329.36 13.50 329.76 13.66C330.15 13.83 330.58 13.90 331.06 13.90C331.32 13.90 331.59 13.89 331.84 13.83C332.09 13.78 332.35 13.71 332.57 13.62C332.79 13.54 333.00 13.44 333.19 13.31C333.37 13.19 333.52 13.06 333.63 12.92L333.45 12.70C333.42 12.66 333.37 12.63 333.31 12.63C333.27 12.63 333.19 12.66 333.09 12.74C332.99 12.82 332.85 12.91 332.67 13.01C332.50 13.10 332.28 13.17 332.02 13.26C331.77 13.34 331.46 13.38 331.11 13.38C330.72 13.38 330.37 13.31 330.05 13.17C329.73 13.03 329.46 12.84 329.24 12.57C329.01 12.31 328.85 11.97 328.72 11.58C328.59 11.19 328.54 10.71 328.54 10.19L328.54 10.07L333.56 10.07C333.63 10.07 333.68 10.05 333.70 10.01C333.73 9.97 333.76 9.90 333.76 9.80C333.76 9.31 333.69 8.88 333.55 8.50C333.41 8.12 333.23 7.78 332.98 7.53C332.74 7.28 332.44 7.08 332.11 6.94C331.77 6.80 331.41 6.73 331.02 6.73ZM331.03 7.24C331.35 7.24 331.63 7.29 331.90 7.41C332.16 7.52 332.39 7.67 332.57 7.88C332.75 8.09 332.91 8.33 333.00 8.62C333.10 8.92 333.16 9.25 333.16 9.63L328.57 9.63C328.61 9.27 328.69 8.93 328.82 8.64C328.94 8.34 329.11 8.09 329.32 7.88C329.53 7.67 329.78 7.52 330.06 7.41C330.34 7.29 330.67 7.24 331.03 7.24Z"></path></g></svg>