<svg data-v-d3f97b9e="" xmlns="http://www.w3.org/2000/svg" viewBox="0 0 74.29651436913053 60"><!----><!----><!----><!----><g data-v-d3f97b9e="" id="46e695d6-bb85-45a9-a037-c9902468bf08" transform="matrix(0.7680099001276188,0,0,0.7680099001276188,-1.2518561817662217,-10.70452177703853)" stroke="none" fill="white"><path d="M42.021 89.823l56.348-36.234-15.803 7.63.008.073-.047-.054-.263.127.017.024zM79.395 61.174l-40.5-3.783-2.084 33.859zM3.71 38.712l31.208 53.35 2.148-34.916zM95.209 45.172L80.775 27.29l-1.543 5.226 16.696 13.659zM98.135 50.979L79.758 35.645l2.523 22.987zM61.512 33.498l18.246 21.006-2.334-21.148zM59.756 34.836L39.467 54.979l40.965 3.829zM58.445 33.191l-21.771-5.826 2.3 25.606zM37.133 54.393l-2.311-25.856-28.046 9.102zM8.923 35.031l25.604-8.739-8.868-6.425zM1.63 26.184l1.62 11.301 17.707-16.463zM28.355 14.604L7.837 21.987l18.264-4.878zM36.751 24.86l23.38 6.336 17.017-.289 1.524-5.158-10.721-5.896-19.778-5.367-15.917-.548-4.183 4.648z"></path></g><!----></svg>